<svg xmlns="http://www.w3.org/2000/svg" xmlns:xlink="http://www.w3.org/1999/xlink" xmlns:lucid="lucid" width="1870.87" height="1322.83"><g transform="translate(0 0)" lucid:page-tab-id="0_0"><path d="M354.4 206a6 6 0 0 1 6-6h179.35a6 6 0 0 1 6 6v108a6 6 0 0 1-6 6H360.4a6 6 0 0 1-6-6z" stroke="#3a414a" fill="#fff"/><path d="M373.54 200v120M526.6 200v120" stroke="#3a414a" fill="none"/><use xlink:href="#a" transform="matrix(1,0,0,1,383.3267716535433,205) translate(6.990234375000021 64.99348958333333)"/><path d="M1119.76 426a6 6 0 0 1 6-6h200.6a6 6 0 0 1 6 6v108a6 6 0 0 1-6 6h-200.6a6 6 0 0 1-6-6z" stroke="#3a414a" fill="#fff"/><path d="M1141.02 420v120m170.08-120v120" stroke="#3a414a" fill="none"/><use xlink:href="#b" transform="matrix(1,0,0,1,1151.3385826771655,425) translate(4.988606770833357 64.99348958333333)"/><path d="M609.53 426a6 6 0 0 1 6-6H837.4a6 6 0 0 1 6 6v108a6 6 0 0 1-6 6H615.52a6 6 0 0 1-6-6z" stroke="#3a414a" fill="#fff"/><use xlink:href="#c" transform="matrix(1,0,0,1,621.5275590551181,432) translate(16.98567708333337 57.328125)"/><path d="M843.4 206a6 6 0 0 1 6-6h136.8a6 6 0 0 1 6 6v108a6 6 0 0 1-6 6H849.4a6 6 0 0 1-6-6z" stroke="#3a414a" fill="#fff"/><use xlink:href="#d" transform="matrix(1,0,0,1,855.3858267716536,212) translate(14.492187500000014 57.328125)"/><path d="M657.55 260.5H546.7v-1h110.85zm184.87 0H731.58v-1h110.84z" stroke="#3a414a" stroke-width=".05" fill="#3a414a"/><path d="M546.72 260.5h-.5v-1h.5z" fill="#3a414a"/><path d="M546.75 260.52h-.56v-1.04h.55zm-.5-1v.96h.45v-.96z" stroke="#3a414a" stroke-width=".05" fill="#3a414a"/><path d="M842.92 260.5h-.5v-1h.5z" fill="#3a414a"/><path d="M842.95 260.52h-.57v-1.04h.57zm-.52-1v.96h.47v-.96z" stroke="#3a414a" stroke-width=".05" fill="#3a414a"/><use xlink:href="#e" transform="matrix(1,0,0,1,657.5545836162632,249.33333333333334) translate(0 14.222222222222223)"/><use xlink:href="#f" transform="matrix(1,0,0,1,555.678932800224,234.66666666666669) translate(0 14.222222222222223)"/><use xlink:href="#g" transform="matrix(1,0,0,1,798.8189479848463,234.66666666666669) translate(0 14.222222222222223)"/><path d="M1221.08 259.58l1 .24.93.4.88.52.78.66.66.78.54.87.4.94.23 1 .06 154.04h-1l-.07-153.92-.2-.82-.34-.8-.45-.73-.55-.66-.66-.55-.74-.45-.8-.33-.84-.2-.88-.07h-24.56v-1h24.6zm-227.9.92v-1h122.5v1z" stroke="#3a414a" stroke-width=".05" fill="#3a414a"/><path d="M993.18 260.5h-.5v-1h.5z" fill="#3a414a"/><path d="M993.2 260.52h-.56v-1.04h.57zm-.5-1v.96h.46v-.96z" stroke="#3a414a" stroke-width=".05" fill="#3a414a"/><path d="M1226.56 419.54h-1v-.52h1z" fill="#3a414a"/><path d="M1226.6 419.56h-1.06V419h1.05zm-1-.5v.45h.94v-.45z" stroke="#3a414a" stroke-width=".05" fill="#3a414a"/><use xlink:href="#h" transform="matrix(1,0,0,1,1115.6747685436958,249.33333333333334) translate(0 14.222222222222223)"/><path d="M947.08 480.5H844.35v-1h102.73zm171.72 0h-102.73v-1h102.73z" stroke="#3a414a" stroke-width=".05" fill="#3a414a"/><path d="M844.36 480.5h-.5v-1h.5z" fill="#3a414a"/><path d="M844.4 480.52h-.58v-1.04h.57zm-.53-1v.96h.47v-.96z" stroke="#3a414a" stroke-width=".05" fill="#3a414a"/><path d="M1119.3 480.5h-.5v-1h.5z" fill="#3a414a"/><path d="M1119.33 480.52h-.57v-1.04h.57zm-.52-1v.96h.48v-.96z" stroke="#3a414a" stroke-width=".05" fill="#3a414a"/><use xlink:href="#i" transform="matrix(1,0,0,1,947.0809761308448,469.3333333333333) translate(0 14.222222222222223)"/><path d="M444.74 602.74a11.7 11.7 0 0 1 10.68 0l106.25 54.52a3.08 3.08 0 0 1 0 5.48l-106.25 54.52a11.7 11.7 0 0 1-10.68 0L338.5 662.74a3.08 3.08 0 0 1 0-5.48z" stroke="#3a414a" fill="#fff"/><use xlink:href="#j" transform="matrix(1,0,0,1,338.14960629921256,605) translate(51.32845920138891 64.35546875)"/><path d="M375.67 872a6 6 0 0 1 6-6H518.5a6 6 0 0 1 6 6v108a6 6 0 0 1-6 6H381.66a6 6 0 0 1-6-6z" stroke="#3a414a" fill="#fff"/><use xlink:href="#k" transform="matrix(1,0,0,1,387.66929133858264,878) translate(14.492187500000014 57.328125)"/><path d="M280.5 919.98l.07.88.2.84.33.8.45.73.56.66.67.55.73.45.8.33.82.2 89.6.07v1l-89.72-.07-1-.25-.95-.4-.87-.52-.78-.66-.66-.78-.53-.87-.38-.94-.24-.98-.08-1 .05-420.3h1zm72.95-659.48h-67.43l-.88.07-.84.2-.8.33-.73.45-.66.56-.55.67-.45.73-.33.8-.2.82-.02 213.27h-1l.02-213.4.25-1 .4-.95.52-.87.66-.78.78-.66.87-.53.94-.38.98-.24 1-.08h67.47z" stroke="#3a414a" stroke-width=".05" fill="#3a414a"/><path d="M353.95 260.5h-.52v-1h.52z" fill="#3a414a"/><path d="M353.97 260.52h-.56v-1.04h.57zm-.5-1v.96h.45v-.96z" stroke="#3a414a" stroke-width=".05" fill="#3a414a"/><path d="M375.2 926.5h-.5v-1h.5z" fill="#3a414a"/><path d="M375.23 926.52h-.56v-1.04h.56zm-.5-1v.96h.45v-.96z" stroke="#3a414a" stroke-width=".05" fill="#3a414a"/><use xlink:href="#l" transform="matrix(1,0,0,1,253.90123456790124,478.3866645937874) translate(0 14.222222222222223)"/><path d="M450.58 600.45h-1V471.37h1zm0-150.4h-1v-129.1h1z" stroke="#3a414a" stroke-width=".05" fill="#3a414a"/><path d="M450.58 320.98h-1v-.52h1z" fill="#3a414a"/><path d="M450.6 321h-1.05v-.56h1.05zm-1-.5v.45h.95v-.46z" stroke="#3a414a" stroke-width=".05" fill="#3a414a"/><path d="M450.58 600.97l-.5-.02-.5.02v-.53h1z" fill="#3a414a"/><path d="M450.6 601l-.52-.03-.53.03v-.6h1.05zm-1-.54v.5l.48-.04.47.03v-.5z" stroke="#3a414a" stroke-width=".05" fill="#3a414a"/><use xlink:href="#e" transform="matrix(1,0,0,1,413.06639447846794,450.03943770824304) translate(0 14.222222222222223)"/><path d="M450.58 865.04h-1v-62.08h1zm0-83.4h-1v-62.1h1z" stroke="#3a414a" stroke-width=".05" fill="#3a414a"/><path d="M450.58 865.54h-1v-.52h1z" fill="#3a414a"/><path d="M450.6 865.56h-1.05V865h1.05zm-1-.5v.45h.95v-.45z" stroke="#3a414a" stroke-width=".05" fill="#3a414a"/><path d="M450.08 719.05l.5-.02v.53h-1v-.53z" fill="#3a414a"/><path d="M450.08 719.03l.52-.03v.6h-1.05v-.6zm-.48.5h.95v-.48l-.47.03-.48-.03z" stroke="#3a414a" stroke-width=".05" fill="#3a414a"/><use xlink:href="#m" transform="matrix(1,0,0,1,393.83182657723336,781.6271992253954) translate(0 14.222222222222223)"/><use xlink:href="#n" transform="matrix(1,0,0,1,393.83182657723336,781.6271992253954) translate(40.44444444444445 14.222222222222223)"/><use xlink:href="#o" transform="matrix(1,0,0,1,393.83182657723336,781.6271992253954) translate(97.67901234567903 14.222222222222223)"/><path d="M839.74 660.47l-275.4.03v-1l275.4-.03zm386.82-6.45l-.08 1-.23 1-.4.93-.53.87-.66.78-.78.66-.87.53-.93.38-1 .25-291.65.03v-1l291.52-.03.82-.2.8-.33.73-.45.65-.56.56-.67.46-.73.33-.8.2-.84.06-.88V540.96h1z" stroke="#3a414a" stroke-width=".05" fill="#3a414a"/><path d="M1226.56 540.98h-1v-.52h1z" fill="#3a414a"/><path d="M1226.6 541h-1.06v-.56h1.05zm-1-.5v.45h.94v-.46z" stroke="#3a414a" stroke-width=".05" fill="#3a414a"/><path d="M564.36 660.5h-.57l.05-.5-.06-.5h.56z" fill="#3a414a"/><path d="M564.38 660.52h-.62l.06-.52-.06-.52h.62zm-.56-1l.05.48-.05.48h.5v-.96z" stroke="#3a414a" stroke-width=".05" fill="#3a414a"/><use xlink:href="#p" transform="matrix(1,0,0,1,839.7395364358658,649.3333333333334) translate(0 14.222222222222223)"/><path d="M737.1 786a6 6 0 0 1 6-6h349.4a6 6 0 0 1 6 6v348a6 6 0 0 1-6 6H743.1a6 6 0 0 1-6-6z" stroke="#3a414a" fill="#fff"/><path d="M864.65 1034a6 6 0 0 1 6-6h200.6a6 6 0 0 1 6 6v68a6 6 0 0 1-6 6h-200.6a6 6 0 0 1-6-6z" stroke="#3a414a" fill="#fff"/><use xlink:href="#q" transform="matrix(1,0,0,1,876.6456692913387,1040) translate(69.25308641975309 31.77777777777778)"/><path d="M864.65 906a6 6 0 0 1 6-6h200.6a6 6 0 0 1 6 6v68a6 6 0 0 1-6 6h-200.6a6 6 0 0 1-6-6z" stroke="#3a414a" fill="#fff"/><use xlink:href="#r" transform="matrix(1,0,0,1,876.6456692913387,912) translate(39.654320987654316 31.77777777777778)"/><path d="M737.1 786a6 6 0 0 1 6-6h349.4a6 6 0 0 1 6 6v60a6 6 0 0 1-6 6H743.1a6 6 0 0 1-6-6z" stroke="#3a414a" fill="#fff"/><use xlink:href="#s" transform="matrix(1,0,0,1,749.0866141732284,792) translate(103.65603298611111 33.88281249999999)"/><path d="M1289.84 912a6 6 0 0 1 6-6H1624a6 6 0 0 1 6 6v96a6 6 0 0 1-6 6h-328.16a6 6 0 0 1-6-6z" stroke="#3a414a" fill="#fff"/><path d="M1323.86 906v108m272.12-108v108" stroke="#3a414a" fill="none"/><use xlink:href="#t" transform="matrix(1,0,0,1,1337.3622047244096,911) translate(22.983723958333385 58.99348958333333)"/><path d="M1159.2 960.5h-59.73v-1h59.74zm129.68 0h-59.74v-1h59.74z" stroke="#3a414a" stroke-width=".05" fill="#3a414a"/><path d="M1289.38 960.5h-.5v-1h.5z" fill="#3a414a"/><path d="M1289.4 960.52h-.56v-1.04h.56zm-.5-1v.96h.45v-.96z" stroke="#3a414a" stroke-width=".05" fill="#3a414a"/><path d="M1099.48 960.5h-.5v-1h.5z" fill="#3a414a"/><path d="M1099.5 960.52h-.56v-1.04h.56zm-.5-1v.96h.45v-.96z" stroke="#3a414a" stroke-width=".05" fill="#3a414a"/><use xlink:href="#u" transform="matrix(1,0,0,1,1159.2101361153254,949.3333333333334) translate(0 14.222222222222223)"/><path d="M917.4 778.95l-.2.98-229.58-46.74v-1.03zm-291.86-59.42v1.02L500.98 695.2l.2-.98z" stroke="#3a414a" stroke-width=".05" fill="#3a414a"/><path d="M920.3 779.54h-3.03l.12-.6z" fill="#3a414a"/><path d="M920.55 779.56h-3.3l.12-.64zm-3.25-.05h2.75l-2.64-.53z" stroke="#3a414a" stroke-width=".05" fill="#3a414a"/><path d="M501 695.2l-1.12-.23 1.3-.66z" fill="#3a414a"/><path d="M501 695.23l-1.2-.25 1.4-.72zm-1.05-.27l1.02.2.17-.8z" stroke="#3a414a" stroke-width=".05" fill="#3a414a"/><use xlink:href="#v" transform="matrix(1,0,0,1,625.5449185880381,715.6960986520681) translate(0 14.222222222222223)"/><path d="M785.6 940.5h-48.48v-1h48.5zm78.08 0h-48.5v-1h48.5z" stroke="#3a414a" stroke-width=".05" fill="#3a414a"/><path d="M864.18 940.5h-.5v-1h.5z" fill="#3a414a"/><path d="M864.2 940.52h-.56v-1.04h.57zm-.5-1v.96h.46v-.95z" stroke="#3a414a" stroke-width=".05" fill="#3a414a"/><path d="M737.13 940.5h-.5v-1h.5z" fill="#3a414a"/><path d="M737.16 940.54h-.57v-1.05h.56zm-.52-1v.95h.47v-.96z" stroke="#3a414a" stroke-width=".05" fill="#3a414a"/><use xlink:href="#w" transform="matrix(1,0,0,1,785.6105758598549,929.3386117306915) translate(0 14.222222222222223)"/><path d="M863.68 1067.5v1l-48.48-.02v-1zm-78.06-.03v1l-48.47-.02v-1z" stroke="#3a414a" stroke-width=".05" fill="#3a414a"/><path d="M737.16 1067.45v1h-.5v-1z" fill="#3a414a"/><path d="M737.18 1067.42v1.05h-.56v-1.05zm-.5 1h.45v-.95h-.46z" stroke="#3a414a" stroke-width=".05" fill="#3a414a"/><path d="M864.18 1067.5v1h-.5v-1z" fill="#3a414a"/><path d="M864.2 1067.48v1.05h-.56v-1.06zm-.5 1h.46v-.96h-.47z" stroke="#3a414a" stroke-width=".05" fill="#3a414a"/><use xlink:href="#w" transform="matrix(1,0,0,1,785.6241333852854,1057.3064836849537) translate(0 14.222222222222223)"/><path d="M1332.36 706a6 6 0 0 1 6-6h221.86a6 6 0 0 1 6 6v108a6 6 0 0 1-6 6h-221.86a6 6 0 0 1-6-6z" stroke="#3a414a" fill="#fff"/><use xlink:href="#x" transform="matrix(1,0,0,1,1344.3622047244094,712) translate(40.98958333333336 57.328125)"/><path d="M1215.93 894.5l-.08.98-.24 1-.38.94-.53.87-.68.77-.77.66-.87.53-.94.4-1.02.23-110.97.07v-1l110.86-.08.83-.2.8-.33.73-.45.65-.56.57-.66.46-.74.33-.8.2-.83.07-.88.03-53.55h1zm115.47-134h-109.95l-.88.07-.84.2-.8.33-.74.45-.66.56-.56.67-.45.73-.33.8-.2.82-.03 54.45h-1L1215 765l.24-1 .4-.95.53-.87.66-.78.78-.66.88-.53.94-.38 1-.24 1-.08h109.98z" stroke="#3a414a" stroke-width=".05" fill="#3a414a"/><path d="M1331.9 760.5h-.5v-1h.5z" fill="#3a414a"/><path d="M1331.92 760.52h-.56v-1.04h.56zm-.5-1v.96h.45v-.96z" stroke="#3a414a" stroke-width=".05" fill="#3a414a"/><path d="M1099.47 900.97h-.52v-1h.52z" fill="#3a414a"/><path d="M1099.5 901h-.57v-1.06h.56zm-.52-1v.94h.46V900z" stroke="#3a414a" stroke-width=".05" fill="#3a414a"/><use xlink:href="#y" transform="matrix(1,0,0,1,1182.3896155970294,819.5672811781948) translate(0 14.222222222222223)"/><path d="M737.1 922a6 6 0 0 1 6-6h9.25a6 6 0 0 1 6 6v8a6 6 0 0 1-6 6h-9.26a6 6 0 0 1-6-6z" stroke="#000" stroke-opacity="0" fill="#fff" fill-opacity="0"/><use xlink:href="#z" transform="matrix(1,0,0,1,742.0866141732284,921) translate(1.0617283950617278 14.222222222222223)"/><path d="M737.1 1046a6 6 0 0 1 6-6h9.25a6 6 0 0 1 6 6v8a6 6 0 0 1-6 6h-9.26a6 6 0 0 1-6-6z" stroke="#000" stroke-opacity="0" fill="#fff" fill-opacity="0"/><use xlink:href="#z" transform="matrix(1,0,0,1,742.0866141732284,1045) translate(1.0617283950617278 14.222222222222223)"/><path d="M822.13 1046a6 6 0 0 1 6-6h30.52a6 6 0 0 1 6 6v8a6 6 0 0 1-6 6h-30.52a6 6 0 0 1-6-6z" stroke="#000" stroke-opacity="0" fill="#fff" fill-opacity="0"/><use xlink:href="#A" transform="matrix(1,0,0,1,827.1259842519685,1045) translate(0.7469135802469111 14.222222222222223)"/><path d="M822.13 922a6 6 0 0 1 6-6h30.52a6 6 0 0 1 6 6v8a6 6 0 0 1-6 6h-30.52a6 6 0 0 1-6-6z" stroke="#000" stroke-opacity="0" fill="#fff" fill-opacity="0"/><use xlink:href="#A" transform="matrix(1,0,0,1,827.1259842519685,921) translate(0.7469135802469111 14.222222222222223)"/><path d="M1268.58 942a6 6 0 0 1 6-6h9.26a6 6 0 0 1 6 6v8a6 6 0 0 1-6 6h-9.26a6 6 0 0 1-6-6z" stroke="#000" stroke-opacity="0" fill="#fff" fill-opacity="0"/><use xlink:href="#z" transform="matrix(1,0,0,1,1273.5826771653544,941) translate(1.0617283950617278 14.222222222222223)"/><path d="M1098.5 942a6 6 0 0 1 6-6h30.52a6 6 0 0 1 6 6v8a6 6 0 0 1-6 6h-30.52a6 6 0 0 1-6-6z" stroke="#000" stroke-opacity="0" fill="#fff" fill-opacity="0"/><use xlink:href="#B" transform="matrix(1,0,0,1,1103.5039370078741,941) translate(-1.6975308641975317 14.222222222222223)"/><path d="M1109.13 886a6 6 0 0 1 6-6h9.26a6 6 0 0 1 6 6v8a6 6 0 0 1-6 6h-9.27a6 6 0 0 1-6-6z" stroke="#000" stroke-opacity="0" fill="#fff" fill-opacity="0"/><use xlink:href="#z" transform="matrix(1,0,0,1,1114.1338582677165,885) translate(1.0617283950617278 14.222222222222223)"/><path d="M1289.84 726a6 6 0 0 1 6-6h30.52a6 6 0 0 1 6 6v8a6 6 0 0 1-6 6h-30.52a6 6 0 0 1-6-6z" stroke="#000" stroke-opacity="0" fill="#fff" fill-opacity="0"/><use xlink:href="#A" transform="matrix(1,0,0,1,1294.8425196850394,725) translate(0.7469135802469111 14.222222222222223)"/><path d="M524.5 686a6 6 0 0 1 6-6H561a6 6 0 0 1 6 6v8a6 6 0 0 1-6 6h-30.5a6 6 0 0 1-6-6z" stroke="#000" stroke-opacity="0" fill="#fff" fill-opacity="0"/><use xlink:href="#B" transform="matrix(1,0,0,1,529.488188976378,685) translate(-1.6975308641975317 14.222222222222223)"/><path d="M885.9 756a6 6 0 0 1 6-6h30.53a6 6 0 0 1 6 6v8a6 6 0 0 1-6 6H891.9a6 6 0 0 1-6-6z" stroke="#000" stroke-opacity="0" fill="#fff" fill-opacity="0"/><use xlink:href="#C" transform="matrix(1,0,0,1,890.9055118110235,755) translate(-1.6975308641975317 14.222222222222223)"/><path d="M1247.32 566a6 6 0 0 1 6-6h9.26a6 6 0 0 1 6 6v8a6 6 0 0 1-6 6h-9.26a6 6 0 0 1-6-6z" stroke="#000" stroke-opacity="0" fill="#fff" fill-opacity="0"/><use xlink:href="#z" transform="matrix(1,0,0,1,1252.3228346456692,565) translate(1.0617283950617278 14.222222222222223)"/><path d="M588.27 646a6 6 0 0 1 6-6h30.52a6 6 0 0 1 6 6v8a6 6 0 0 1-6 6h-30.53a6 6 0 0 1-6-6z" stroke="#000" stroke-opacity="0" fill="#fff" fill-opacity="0"/><use xlink:href="#B" transform="matrix(1,0,0,1,593.267716535433,645) translate(-1.6975308641975317 14.222222222222223)"/><path d="M1087.87 466a6 6 0 0 1 6-6h9.26a6 6 0 0 1 6 6v8a6 6 0 0 1-6 6h-9.26a6 6 0 0 1-6-6z" stroke="#000" stroke-opacity="0" fill="#fff" fill-opacity="0"/><use xlink:href="#z" transform="matrix(1,0,0,1,1092.8740157480313,465) translate(1.0617283950617278 14.222222222222223)"/><path d="M864.65 466a6 6 0 0 1 6-6h30.52a6 6 0 0 1 6 6v8a6 6 0 0 1-6 6h-30.52a6 6 0 0 1-6-6z" stroke="#000" stroke-opacity="0" fill="#fff" fill-opacity="0"/><use xlink:href="#A" transform="matrix(1,0,0,1,869.6456692913385,465) translate(0.7469135802469111 14.222222222222223)"/><path d="M1226.06 386a6 6 0 0 1 6-6h9.26a6 6 0 0 1 6 6v8a6 6 0 0 1-6 6h-9.26a6 6 0 0 1-6-6z" stroke="#000" stroke-opacity="0" fill="#fff" fill-opacity="0"/><use xlink:href="#z" transform="matrix(1,0,0,1,1231.062992125984,385) translate(1.0617283950617278 14.222222222222223)"/><path d="M1013.46 235.56a6 6 0 0 1 6-6h30.52a6 6 0 0 1 6 6v8a6 6 0 0 1-6 6h-30.52a6 6 0 0 1-6-6z" stroke="#000" stroke-opacity="0" fill="#fff" fill-opacity="0"/><use xlink:href="#B" transform="matrix(1,0,0,1,1018.4645669291339,234.56226371368342) translate(-1.6975308641975317 14.222222222222223)"/><path d="M327.96 241.18a6 6 0 0 1 6-6h9.26a6 6 0 0 1 6 6v8a6 6 0 0 1-6 6h-9.26a6 6 0 0 1-6-6z" stroke="#000" stroke-opacity="0" fill="#fff" fill-opacity="0"/><use xlink:href="#z" transform="matrix(1,0,0,1,332.95813148425054,240.1827669107695) translate(1.0617283950617278 14.222222222222223)"/><path d="M334.28 841.4a6 6 0 0 1 6-6h30.52a6 6 0 0 1 6 6v8a6 6 0 0 1-6 6h-30.52a6 6 0 0 1-6-6z" stroke="#000" stroke-opacity="0" fill="#fff" fill-opacity="0"/><use xlink:href="#A" transform="matrix(1,0,0,1,339.2802531135231,840.4143859927756) translate(0.7469135802469111 14.222222222222223)"/><path d="M447.3 722.4a6 6 0 0 1 6-6h30.5a6 6 0 0 1 6 6v8a6 6 0 0 1-6 6h-30.5a6 6 0 0 1-6-6z" stroke="#000" stroke-opacity="0" fill="#fff" fill-opacity="0"/><use xlink:href="#B" transform="matrix(1,0,0,1,452.29387237428915,721.4084794885296) translate(-1.6975308641975317 14.222222222222223)"/><path d="M460.7 846a6 6 0 0 1 6-6h9.27a6 6 0 0 1 6 6v8a6 6 0 0 1-6 6h-9.26a6 6 0 0 1-6-6z" stroke="#000" stroke-opacity="0" fill="#fff" fill-opacity="0"/><g><use xlink:href="#z" transform="matrix(1,0,0,1,465.70866141732284,845) translate(1.0617283950617278 14.222222222222223)"/></g><defs><path fill="#3a414a" d="M872-915c-35-112-84-223-220-223-91 0-156 41-204 116-89 137-87 550 2 688 51 79 116 122 209 122 150 0 197-126 240-244l273 52C1094-168 961 20 656 20 239 20 80-262 80-681c0-418 154-689 568-689 289 0 425 167 496 389" id="D"/><path fill="#3a414a" d="M794-190h353V0H118v-190h395v-1104H223v-190h571v1294" id="E"/><path fill="#3a414a" d="M794-190h353V0H118v-190h395v-702H223v-190h571v892zM513-1277v-207h281v207H513" id="F"/><path fill="#3a414a" d="M1113-274C1038-96 884 20 626 20c-352 0-526-209-526-566 0-358 185-556 530-556 358 0 496 251 499 615H395c5 180 68 319 245 319 102 0 186-45 208-129zM857-663c-6-177-128-307-315-247-94 30-141 121-145 247h460" id="G"/><path fill="#3a414a" d="M768-1103c247 0 336 167 336 416V0H824v-619c-3-164-24-273-171-273-164 0-229 142-229 312V0H143c-4-359 9-736-8-1082h268c7 63 12 146 13 215h4c67-145 160-236 348-236" id="H"/><path fill="#3a414a" d="M711 13c-250 0-386-99-385-349l2-556H161v-190h181l88-282h176v282h385v190H606v530c-10 130 45 186 174 184 91-2 176-11 255-27v186C933-1 833 13 711 13" id="I"/><g id="a"><use transform="matrix(0.01627604166666666,0,0,0.01627604166666666,0,0)" xlink:href="#D"/><use transform="matrix(0.01627604166666666,0,0,0.01627604166666666,20.003255208333325,0)" xlink:href="#E"/><use transform="matrix(0.01627604166666666,0,0,0.01627604166666666,40.00651041666665,0)" xlink:href="#F"/><use transform="matrix(0.01627604166666666,0,0,0.01627604166666666,60.00976562499997,0)" xlink:href="#G"/><use transform="matrix(0.01627604166666666,0,0,0.01627604166666666,80.0130208333333,0)" xlink:href="#H"/><use transform="matrix(0.01627604166666666,0,0,0.01627604166666666,100.01627604166663,0)" xlink:href="#I"/></g><path fill="#3a414a" d="M1229 0H935l-92-330H387L295 0H0l443-1349h344zM615-1167c-46 213-110 412-166 615h332c-56-204-119-401-166-615" id="J"/><path fill="#3a414a" d="M1108-33c-3 314-178 467-492 467-243 0-400-94-447-291l281-33c17 79 82 141 174 141 176 0 212-155 205-347-2-40 5-80 0-115C773-85 665-12 501-12c-288 0-377-242-377-538 0-242 65-426 223-510 50-26 108-39 175-39 160 0 253 78 307 191h5c1-58 5-125 14-174h266c-12 335-3 703-6 1049zM811-384c25-82 27-259 1-342-30-99-77-180-190-180-172 0-205 171-205 356 0 116 18 202 54 258 48 76 129 107 221 70 62-25 96-86 119-162" id="K"/><path fill="#3a414a" d="M775-193C708-75 621 20 439 20 226 20 106-93 106-306c0-251 170-341 417-346l223-4c4-143-12-264-148-264-103 0-141 58-150 153l-293-14c37-219 194-321 455-321 263 0 418 130 417 390v392c1 84 5 161 89 160 21 0 42-2 62-6v152c-57 15-108 27-180 26-145 0-202-73-217-205h-6zm-256 17c168 0 234-139 227-325-166 4-347-25-347 173 0 94 33 152 120 152" id="L"/><path fill="#3a414a" d="M380 206c143 0 202-71 202-216v-882H228v-190h636V13c-6 279-184 412-459 412-107 0-208-16-288-43V172c69 16 169 34 263 34zm203-1483v-207h281v207H583" id="M"/><g id="b"><use transform="matrix(0.01627604166666666,0,0,0.01627604166666666,0,0)" xlink:href="#J"/><use transform="matrix(0.01627604166666666,0,0,0.01627604166666666,20.003255208333325,0)" xlink:href="#H"/><use transform="matrix(0.01627604166666666,0,0,0.01627604166666666,40.00651041666665,0)" xlink:href="#K"/><use transform="matrix(0.01627604166666666,0,0,0.01627604166666666,60.00976562499997,0)" xlink:href="#L"/><use transform="matrix(0.01627604166666666,0,0,0.01627604166666666,80.0130208333333,0)" xlink:href="#M"/><use transform="matrix(0.01627604166666666,0,0,0.01627604166666666,100.01627604166663,0)" xlink:href="#L"/><use transform="matrix(0.01627604166666666,0,0,0.01627604166666666,120.01953124999996,0)" xlink:href="#I"/></g><path fill="#3a414a" d="M473-1349c438-1 655 221 652 661C1122-268 945-8 532 0H162v-1349h311zm42 1193c308-4 416-205 418-532 2-330-131-509-459-505H353v1037h162" id="N"/><path fill="#3a414a" d="M617-1102c355 0 481 238 477 599H322c5 222 84 388 301 388 144 0 244-59 284-166l158 45C1002-72 854 20 623 20c-342 0-490-220-490-568 0-346 151-554 484-554zm291 461c-18-192-90-328-289-328-194 0-287 128-295 328h584" id="O"/><path fill="#3a414a" d="M698-1104c312 3 392 244 392 558 0 315-82 566-392 566-169 0-277-65-331-184h-5c8 188 2 394 4 589H185V-858c0-76-1-156-6-224h175c6 52 9 120 10 178h4c58-122 150-202 330-200zm-49 991c225 0 255-203 255-433 0-225-32-419-253-419-236 0-285 192-285 441 0 237 53 411 283 411" id="P"/><path fill="#3a414a" d="M1000-272c3 95 12 159 101 161 21 0 41-3 59-7V-6c-44 10-86 16-139 16-141 2-191-84-197-217h-6C748-76 648 20 446 20c-207 0-318-120-318-322 0-266 194-348 454-354l236-4c12-191-40-305-222-305-140 0-220 47-232 172l-188-17c33-204 181-292 423-292 255 0 401 118 401 364v466zm-683-27c0 109 63 184 175 182 166-3 259-96 306-217 24-65 20-120 20-200-232 7-501-28-501 235" id="Q"/><path fill="#3a414a" d="M839-1102c70 0 148 7 206 17v167c-112-18-268-36-363 15-129 69-208 203-208 395V0H294c-10-367 32-789-52-1082h171c21 75 41 161 48 250h5c67-152 152-270 373-270" id="R"/><path fill="#3a414a" d="M682 16c-209 0-323-80-324-285v-671H190v-142h170l58-282h120v282h432v142H538v652c2 114 60 155 182 155 106 0 209-16 297-34v137C921-4 806 16 682 16" id="S"/><path fill="#3a414a" d="M904-1102c199 0 220 177 220 381V0H956v-686c-3-114 0-215-60-264-70-33-125-4-158 71-26 56-39 140-39 252V0H531v-686c-3-114-1-215-61-264-78-41-136 24-157 84-24 69-39 159-39 259V0H105c-3-360 6-732-6-1082h149c6 50 3 123 8 175 36-100 83-195 216-195 135 0 166 79 196 196 42-105 93-196 236-196" id="T"/><path fill="#3a414a" d="M706-1102c241 0 344 136 343 381V0H868v-695c1-168-57-273-220-268-190 6-283 138-283 336V0H185c-3-360 6-732-6-1082h170c4 54 7 126 8 185h3c63-121 164-204 346-205" id="U"/><g id="c"><use transform="matrix(0.013020833333333332,0,0,0.013020833333333332,0,0)" xlink:href="#N"/><use transform="matrix(0.013020833333333332,0,0,0.013020833333333332,16.002604166666664,0)" xlink:href="#O"/><use transform="matrix(0.013020833333333332,0,0,0.013020833333333332,32.00520833333333,0)" xlink:href="#P"/><use transform="matrix(0.013020833333333332,0,0,0.013020833333333332,48.00781249999999,0)" xlink:href="#Q"/><use transform="matrix(0.013020833333333332,0,0,0.013020833333333332,64.01041666666666,0)" xlink:href="#R"/><use transform="matrix(0.013020833333333332,0,0,0.013020833333333332,80.01302083333331,0)" xlink:href="#S"/><use transform="matrix(0.013020833333333332,0,0,0.013020833333333332,96.01562499999997,0)" xlink:href="#Q"/><use transform="matrix(0.013020833333333332,0,0,0.013020833333333332,112.01822916666663,0)" xlink:href="#T"/><use transform="matrix(0.013020833333333332,0,0,0.013020833333333332,128.0208333333333,0)" xlink:href="#O"/><use transform="matrix(0.013020833333333332,0,0,0.013020833333333332,144.02343749999994,0)" xlink:href="#U"/><use transform="matrix(0.013020833333333332,0,0,0.013020833333333332,160.0260416666666,0)" xlink:href="#S"/></g><path fill="#3a414a" d="M709-1193V0H519v-1193H76v-156h1076v156H709" id="V"/><path fill="#3a414a" d="M745-142h380V0H143v-142h422v-798H246v-142h499v940zM545-1292v-192h200v192H545" id="W"/><path fill="#3a414a" d="M631 20c-350 0-501-215-501-562 0-355 162-560 502-560 250 0 399 118 446 323l-192 14c-23-124-109-196-262-196-242 0-305 171-305 415 1 245 61 427 304 427 151 0 248-77 267-215l190 12C1039-107 883 20 631 20" id="X"/><path fill="#3a414a" d="M914 0L548-499l-132 98V0H236v-1484h180v927l475-525h211L663-617 1125 0H914" id="Y"/><g id="d"><use transform="matrix(0.013020833333333332,0,0,0.013020833333333332,0,0)" xlink:href="#V"/><use transform="matrix(0.013020833333333332,0,0,0.013020833333333332,16.002604166666664,0)" xlink:href="#W"/><use transform="matrix(0.013020833333333332,0,0,0.013020833333333332,32.00520833333333,0)" xlink:href="#X"/><use transform="matrix(0.013020833333333332,0,0,0.013020833333333332,48.00781249999999,0)" xlink:href="#Y"/><use transform="matrix(0.013020833333333332,0,0,0.013020833333333332,64.01041666666666,0)" xlink:href="#O"/><use transform="matrix(0.013020833333333332,0,0,0.013020833333333332,80.01302083333331,0)" xlink:href="#S"/></g><path fill="#333" d="M135-194c53 0 70 44 70 98 0 56-19 98-73 100-31 1-45-17-59-34 3 33 2 69 2 105H25l-1-265h48c2 10 0 23 3 31 11-24 29-35 60-35zM114-30c33 0 39-31 40-66 0-38-9-64-40-64-56 0-55 130 0 130" id="Z"/><path fill="#333" d="M25 0v-261h50V0H25" id="aa"/><path fill="#333" d="M133-34C117-15 103 5 69 4 32 3 11-16 11-54c-1-60 55-63 116-61 1-26-3-47-28-47-18 1-26 9-28 27l-52-2c7-38 36-58 82-57s74 22 75 68l1 82c-1 14 12 18 25 15v27c-30 8-71 5-69-32zm-48 3c29 0 43-24 42-57-32 0-66-3-65 30 0 17 8 27 23 27" id="ab"/><path fill="#333" d="M137-138c1-29-70-34-71-4 15 46 118 7 119 86 1 83-164 76-172 9l43-7c4 19 20 25 44 25 33 8 57-30 24-41C81-84 22-81 20-136c-2-80 154-74 161-7" id="ac"/><path fill="#333" d="M185-48c-13 30-37 53-82 52C43 2 14-33 14-96s30-98 90-98c62 0 83 45 84 108H66c0 31 8 55 39 56 18 0 30-7 34-22zm-45-69c5-46-57-63-70-21-2 6-4 13-4 21h74" id="ad"/><path fill="#333" d="M12 0v-35l95-120H19v-35h142v35L67-36h103V0H12" id="ae"/><g id="e"><use transform="matrix(0.04938271604938272,0,0,0.04938271604938272,0,0)" xlink:href="#Z"/><use transform="matrix(0.04938271604938272,0,0,0.04938271604938272,10.814814814814815,0)" xlink:href="#aa"/><use transform="matrix(0.04938271604938272,0,0,0.04938271604938272,15.753086419753087,0)" xlink:href="#ab"/><use transform="matrix(0.04938271604938272,0,0,0.04938271604938272,25.629629629629633,0)" xlink:href="#ac"/><use transform="matrix(0.04938271604938272,0,0,0.04938271604938272,35.50617283950618,0)" xlink:href="#ad"/><use transform="matrix(0.04938271604938272,0,0,0.04938271604938272,45.38271604938272,0)" xlink:href="#ab"/><use transform="matrix(0.04938271604938272,0,0,0.04938271604938272,55.25925925925927,0)" xlink:href="#ae"/><use transform="matrix(0.04938271604938272,0,0,0.04938271604938272,64.14814814814815,0)" xlink:href="#ab"/></g><path fill="#333" d="M27 0v-27h64v-190l-56 39v-29l58-41h29v221h61V0H27" id="af"/><use transform="matrix(0.04938271604938272,0,0,0.04938271604938272,0,0)" xlink:href="#af" id="f"/><path fill="#333" d="M240 0l2-218c-23 76-54 145-80 218h-23L58-218 59 0H30v-248h44l77 211c21-75 51-140 76-211h43V0h-30" id="ag"/><path fill="#333" d="M87 75C49 33 22-17 22-94c0-76 28-126 65-167h31c-38 41-64 92-64 168S80 34 118 75H87" id="ah"/><path fill="#333" d="M101-251c68 0 85 55 85 127S166 4 100 4C33 4 14-52 14-124c0-73 17-127 87-127zm-1 229c47 0 54-49 54-102s-4-102-53-102c-51 0-55 48-55 102 0 53 5 102 54 102" id="ai"/><path fill="#333" d="M33-261c38 41 65 92 65 168S71 34 33 75H2C39 34 66-17 66-93S39-220 2-261h31" id="aj"/><g id="g"><use transform="matrix(0.04938271604938272,0,0,0.04938271604938272,0,0)" xlink:href="#ag"/><use transform="matrix(0.04938271604938272,0,0,0.04938271604938272,14.765432098765434,0)" xlink:href="#ah"/><use transform="matrix(0.04938271604938272,0,0,0.04938271604938272,20.641975308641978,0)" xlink:href="#ai"/><use transform="matrix(0.04938271604938272,0,0,0.04938271604938272,30.518518518518523,0)" xlink:href="#aj"/></g><path fill="#333" d="M135-150c-39-12-60 13-60 57V0H25l-1-190h47c2 13-1 29 3 40 6-28 27-53 61-41v41" id="ak"/><path fill="#333" d="M85 4C-2 5 27-109 22-190h50c7 57-23 150 33 157 60-5 35-97 40-157h50l1 190h-47c-2-12 1-28-3-38-12 25-28 42-61 42" id="al"/><path fill="#333" d="M135-194c87-1 58 113 63 194h-50c-7-57 23-157-34-157-59 0-34 97-39 157H25l-1-190h47c2 12-1 28 3 38 12-26 28-41 61-42" id="am"/><path fill="#333" d="M88-194c31-1 46 15 58 34l-1-101h50l1 261h-48c-2-10 0-23-3-31C134-8 116 4 84 4 32 4 16-41 15-95c0-56 19-97 73-99zm17 164c33 0 40-30 41-66 1-37-9-64-41-64s-38 30-39 65c0 43 13 65 39 65" id="an"/><g id="h"><use transform="matrix(0.04938271604938272,0,0,0.04938271604938272,0,0)" xlink:href="#ak"/><use transform="matrix(0.04938271604938272,0,0,0.04938271604938272,6.913580246913581,0)" xlink:href="#ab"/><use transform="matrix(0.04938271604938272,0,0,0.04938271604938272,16.790123456790127,0)" xlink:href="#ac"/><use transform="matrix(0.04938271604938272,0,0,0.04938271604938272,26.666666666666668,0)" xlink:href="#Z"/><use transform="matrix(0.04938271604938272,0,0,0.04938271604938272,37.48148148148149,0)" xlink:href="#al"/><use transform="matrix(0.04938271604938272,0,0,0.04938271604938272,48.296296296296305,0)" xlink:href="#am"/><use transform="matrix(0.04938271604938272,0,0,0.04938271604938272,59.111111111111114,0)" xlink:href="#an"/><use transform="matrix(0.04938271604938272,0,0,0.04938271604938272,69.92592592592594,0)" xlink:href="#ad"/></g><path fill="#333" d="M115-3C79 11 28 4 28-45v-112H4v-33h27l15-45h31v45h36v33H77v99c-1 23 16 31 38 25v30" id="ao"/><path fill="#333" d="M25-224v-37h50v37H25zM25 0v-190h50V0H25" id="ap"/><g id="i"><use transform="matrix(0.04938271604938272,0,0,0.04938271604938272,0,0)" xlink:href="#ab"/><use transform="matrix(0.04938271604938272,0,0,0.04938271604938272,9.876543209876544,0)" xlink:href="#Z"/><use transform="matrix(0.04938271604938272,0,0,0.04938271604938272,20.69135802469136,0)" xlink:href="#ab"/><use transform="matrix(0.04938271604938272,0,0,0.04938271604938272,30.567901234567906,0)" xlink:href="#ak"/><use transform="matrix(0.04938271604938272,0,0,0.04938271604938272,37.48148148148149,0)" xlink:href="#ao"/><use transform="matrix(0.04938271604938272,0,0,0.04938271604938272,43.35802469135803,0)" xlink:href="#ap"/><use transform="matrix(0.04938271604938272,0,0,0.04938271604938272,48.296296296296305,0)" xlink:href="#am"/><use transform="matrix(0.04938271604938272,0,0,0.04938271604938272,59.111111111111114,0)" xlink:href="#ad"/></g><path fill="#3a414a" d="M616-1102c361 0 521 202 521 560 0 354-171 562-527 562C259 20 92-192 92-542c0-351 169-560 524-560zm-9 930c200-2 236-165 236-370 0-199-27-367-223-367-195 0-233 146-233 367 0 129 18 223 55 282s92 88 165 88" id="aq"/><path fill="#3a414a" d="M934-1102c199 0 220 177 220 381V0H926c-2-260 10-533-4-785-4-72-14-138-83-138-34 0-61 27-81 81s-29 134-29 241V0H501c-2-260 9-533-5-785-4-72-13-138-82-138-46 0-65 47-80 93-21 67-30 155-30 248V0H75c-3-360 6-732-6-1082h209c6 50 3 123 8 175 36-100 83-195 216-195 135 0 166 79 196 196 42-105 93-196 236-196" id="ar"/><path fill="#3a414a" d="M802-909c-3-189-2-383-2-575h281v1248c-1 83 4 168 8 236H817c-9-50-14-117-15-176h-4C735-49 651 20 482 20 191 20 97-238 97-539c0-243 66-432 221-519 50-28 108-42 175-42 162 2 253 78 309 191zm-70 658c91-113 93-462 2-584-46-61-145-100-224-53-96 56-119 190-120 349 0 123 17 214 52 275 46 82 130 115 222 74 25-12 46-33 68-61" id="as"/><g id="j"><use transform="matrix(0.014105902777777776,0,0,0.014105902777777776,0,0)" xlink:href="#D"/><use transform="matrix(0.014105902777777776,0,0,0.014105902777777776,17.336154513888886,0)" xlink:href="#aq"/><use transform="matrix(0.014105902777777776,0,0,0.014105902777777776,34.67230902777777,0)" xlink:href="#ar"/><use transform="matrix(0.014105902777777776,0,0,0.014105902777777776,52.00846354166666,0)" xlink:href="#L"/><use transform="matrix(0.014105902777777776,0,0,0.014105902777777776,69.34461805555554,0)" xlink:href="#H"/><use transform="matrix(0.014105902777777776,0,0,0.014105902777777776,86.68077256944443,0)" xlink:href="#as"/><use transform="matrix(0.014105902777777776,0,0,0.014105902777777776,104.01692708333331,0)" xlink:href="#L"/></g><path fill="#3a414a" d="M1034 0L896-382H333L196 0H0l510-1349h217L1228 0h-194zM847-531c-77-225-157-447-231-674-69 231-154 451-232 674h463" id="at"/><path fill="#3a414a" d="M865-914c-3-187-2-380-2-570h180v1261c0 76 1 155 6 223H877c-8-49-9-116-10-174h-5C801-44 708 26 530 26c-135 0-234-46-297-139s-95-232-95-419c0-377 131-566 392-566 176 0 271 63 335 184zm-286-51c-222 0-255 197-255 427 0 229 31 425 253 425 237 0 286-195 286-441 0-238-52-411-284-411" id="au"/><path fill="#3a414a" d="M873-819c-18-114-119-146-250-146-163 0-245 50-245 151 0 151 170 148 294 185 182 54 388 94 388 320 0 240-189 325-439 329-245 4-410-69-454-268l159-31c24 133 136 168 295 165 144-2 270-31 270-171 0-164-195-160-331-202-167-52-350-87-350-299 0-218 173-315 413-313 220 2 373 77 412 260" id="av"/><g id="k"><use transform="matrix(0.013020833333333332,0,0,0.013020833333333332,0,0)" xlink:href="#at"/><use transform="matrix(0.013020833333333332,0,0,0.013020833333333332,16.002604166666664,0)" xlink:href="#au"/><use transform="matrix(0.013020833333333332,0,0,0.013020833333333332,32.00520833333333,0)" xlink:href="#R"/><use transform="matrix(0.013020833333333332,0,0,0.013020833333333332,48.00781249999999,0)" xlink:href="#O"/><use transform="matrix(0.013020833333333332,0,0,0.013020833333333332,64.01041666666666,0)" xlink:href="#av"/><use transform="matrix(0.013020833333333332,0,0,0.013020833333333332,80.01302083333331,0)" xlink:href="#Q"/></g><g id="l"><use transform="matrix(0.04938271604938272,0,0,0.04938271604938272,0,0)" xlink:href="#an"/><use transform="matrix(0.04938271604938272,0,0,0.04938271604938272,10.814814814814815,0)" xlink:href="#ad"/><use transform="matrix(0.04938271604938272,0,0,0.04938271604938272,20.69135802469136,0)" xlink:href="#ao"/><use transform="matrix(0.04938271604938272,0,0,0.04938271604938272,26.567901234567902,0)" xlink:href="#ap"/><use transform="matrix(0.04938271604938272,0,0,0.04938271604938272,31.506172839506174,0)" xlink:href="#am"/><use transform="matrix(0.04938271604938272,0,0,0.04938271604938272,42.320987654320994,0)" xlink:href="#ad"/></g><g id="m"><use transform="matrix(0.04938271604938272,0,0,0.04938271604938272,0,0)" xlink:href="#ad"/><use transform="matrix(0.04938271604938272,0,0,0.04938271604938272,9.876543209876544,0)" xlink:href="#ac"/><use transform="matrix(0.04938271604938272,0,0,0.04938271604938272,19.75308641975309,0)" xlink:href="#ao"/><use transform="matrix(0.04938271604938272,0,0,0.04938271604938272,25.629629629629633,0)" xlink:href="#ad"/></g><path fill="#333" d="M128 0H69L1-190h53L99-40l48-150h52" id="aw"/><g id="n"><use transform="matrix(0.04938271604938272,0,0,0.04938271604938272,0,0)" xlink:href="#aa"/><use transform="matrix(0.04938271604938272,0,0,0.04938271604938272,4.938271604938272,0)" xlink:href="#ap"/><use transform="matrix(0.04938271604938272,0,0,0.04938271604938272,9.876543209876544,0)" xlink:href="#aw"/><use transform="matrix(0.04938271604938272,0,0,0.04938271604938272,19.75308641975309,0)" xlink:href="#ak"/><use transform="matrix(0.04938271604938272,0,0,0.04938271604938272,26.666666666666668,0)" xlink:href="#ab"/><use transform="matrix(0.04938271604938272,0,0,0.04938271604938272,36.543209876543216,0)" xlink:href="#ao"/><use transform="matrix(0.04938271604938272,0,0,0.04938271604938272,42.41975308641976,0)" xlink:href="#ab"/></g><g id="o"><use transform="matrix(0.04938271604938272,0,0,0.04938271604938272,0,0)" xlink:href="#aa"/><use transform="matrix(0.04938271604938272,0,0,0.04938271604938272,4.938271604938272,0)" xlink:href="#ab"/></g><path fill="#333" d="M195-6C206 82 75 100 31 46c-4-6-6-13-8-21l49-6c3 16 16 24 34 25 40 0 42-37 40-79-11 22-30 35-61 35-53 0-70-43-70-97 0-56 18-96 73-97 30 0 46 14 59 34l2-30h47zm-90-29c32 0 41-27 41-63 0-35-9-62-40-62-32 0-39 29-40 63 0 36 9 62 39 62" id="ax"/><g id="p"><use transform="matrix(0.04938271604938272,0,0,0.04938271604938272,0,0)" xlink:href="#Z"/><use transform="matrix(0.04938271604938272,0,0,0.04938271604938272,10.814814814814815,0)" xlink:href="#ak"/><use transform="matrix(0.04938271604938272,0,0,0.04938271604938272,17.728395061728396,0)" xlink:href="#ad"/><use transform="matrix(0.04938271604938272,0,0,0.04938271604938272,27.60493827160494,0)" xlink:href="#ax"/><use transform="matrix(0.04938271604938272,0,0,0.04938271604938272,38.41975308641975,0)" xlink:href="#ab"/><use transform="matrix(0.04938271604938272,0,0,0.04938271604938272,48.2962962962963,0)" xlink:href="#ao"/><use transform="matrix(0.04938271604938272,0,0,0.04938271604938272,54.17283950617284,0)" xlink:href="#ad"/><use transform="matrix(0.04938271604938272,0,0,0.04938271604938272,64.0493827160494,0)" xlink:href="#ac"/><use transform="matrix(0.04938271604938272,0,0,0.04938271604938272,73.92592592592594,0)" xlink:href="#ao"/><use transform="matrix(0.04938271604938272,0,0,0.04938271604938272,79.80246913580248,0)" xlink:href="#ad"/></g><path fill="#3a414a" d="M212-179c-10-28-35-45-73-45-59 0-87 40-87 99 0 60 29 101 89 101 43 0 62-24 78-52l27 14C228-24 195 4 139 4 59 4 22-46 18-125c-6-104 99-153 187-111 19 9 31 26 39 46" id="ay"/><path fill="#3a414a" d="M141-36C126-15 110 5 73 4 37 3 15-17 15-53c-1-64 63-63 125-63 3-35-9-54-41-54-24 1-41 7-42 31l-33-3c5-37 33-52 76-52 45 0 72 20 72 64v82c-1 20 7 32 28 27v20c-31 9-61-2-59-35zM48-53c0 20 12 33 32 33 41-3 63-29 60-74-43 2-92-5-92 41" id="az"/><path fill="#3a414a" d="M135-143c-3-34-86-38-87 0 15 53 115 12 119 90S17 21 10-45l28-5c4 36 97 45 98 0-10-56-113-15-118-90-4-57 82-63 122-42 12 7 21 19 24 35" id="aA"/><path fill="#3a414a" d="M59-47c-2 24 18 29 38 22v24C64 9 27 4 27-40v-127H5v-23h24l9-43h21v43h35v23H59v120" id="aB"/><path fill="#3a414a" d="M24-231v-30h32v30H24zM24 0v-190h32V0H24" id="aC"/><g id="q"><use transform="matrix(0.06172839506172839,0,0,0.06172839506172839,0,0)" xlink:href="#ay"/><use transform="matrix(0.06172839506172839,0,0,0.06172839506172839,15.987654320987653,0)" xlink:href="#az"/><use transform="matrix(0.06172839506172839,0,0,0.06172839506172839,28.333333333333332,0)" xlink:href="#aA"/><use transform="matrix(0.06172839506172839,0,0,0.06172839506172839,39.44444444444444,0)" xlink:href="#aB"/><use transform="matrix(0.06172839506172839,0,0,0.06172839506172839,45.617283950617285,0)" xlink:href="#aC"/></g><path fill="#3a414a" d="M240 0l2-218c-23 76-54 145-80 218h-23L58-218 59 0H30v-248h44l77 211c21-75 51-140 76-211h43V0h-30" id="aD"/><path fill="#3a414a" d="M96-169c-40 0-48 33-48 73s9 75 48 75c24 0 41-14 43-38l32 2c-6 37-31 61-74 61-59 0-76-41-82-99-10-93 101-131 147-64 4 7 5 14 7 22l-32 3c-4-21-16-35-41-35" id="aE"/><path fill="#3a414a" d="M114-163C36-179 61-72 57 0H25l-1-190h30c1 12-1 29 2 39 6-27 23-49 58-41v29" id="aF"/><path fill="#3a414a" d="M100-194c62-1 85 37 85 99 1 63-27 99-86 99S16-35 15-95c0-66 28-99 85-99zM99-20c44 1 53-31 53-75 0-43-8-75-51-75s-53 32-53 75 10 74 51 75" id="aG"/><path fill="#3a414a" d="M101-234c-31-9-42 10-38 44h38v23H63V0H32v-167H5v-23h27c-7-52 17-82 69-68v24" id="aH"/><path fill="#3a414a" d="M117-194c89-4 53 116 60 194h-32v-121c0-31-8-49-39-48C34-167 62-67 57 0H25l-1-190h30c1 10-1 24 2 32 11-22 29-35 61-36" id="aI"/><path fill="#3a414a" d="M100-194c63 0 86 42 84 106H49c0 40 14 67 53 68 26 1 43-12 49-29l28 8c-11 28-37 45-77 45C44 4 14-33 15-96c1-61 26-98 85-98zm52 81c6-60-76-77-97-28-3 7-6 17-6 28h103" id="aJ"/><g id="r"><use transform="matrix(0.06172839506172839,0,0,0.06172839506172839,0,0)" xlink:href="#aD"/><use transform="matrix(0.06172839506172839,0,0,0.06172839506172839,18.456790123456788,0)" xlink:href="#aC"/><use transform="matrix(0.06172839506172839,0,0,0.06172839506172839,23.33333333333333,0)" xlink:href="#aE"/><use transform="matrix(0.06172839506172839,0,0,0.06172839506172839,34.44444444444444,0)" xlink:href="#aF"/><use transform="matrix(0.06172839506172839,0,0,0.06172839506172839,41.79012345679012,0)" xlink:href="#aG"/><use transform="matrix(0.06172839506172839,0,0,0.06172839506172839,54.1358024691358,0)" xlink:href="#aH"/><use transform="matrix(0.06172839506172839,0,0,0.06172839506172839,60.30864197530864,0)" xlink:href="#aG"/><use transform="matrix(0.06172839506172839,0,0,0.06172839506172839,72.65432098765432,0)" xlink:href="#az"/><use transform="matrix(0.06172839506172839,0,0,0.06172839506172839,85,0)" xlink:href="#aI"/><use transform="matrix(0.06172839506172839,0,0,0.06172839506172839,97.34567901234568,0)" xlink:href="#aJ"/></g><path fill="#3a414a" d="M616-1349c316 3 526 118 526 426 0 301-201 442-514 447H431V0H136v-1349h480zm-25 646c164 1 254-62 254-215 0-157-99-200-262-202H431v417h160" id="aK"/><path fill="#3a414a" d="M875-1102c70 0 148 7 206 17v237c-110-17-267-37-359 15-123 69-192 207-192 395V0H250c-10-367 32-789-52-1082h271c19 69 36 149 46 228h4c52-151 151-250 356-248" id="aL"/><path fill="#3a414a" d="M471 20c-247 0-336-169-336-415v-687h281v607c4 148 31 285 172 285 152 0 207-150 207-312v-580h281c4 359-9 736 8 1082H816c-7-63-11-146-12-215h-5C736-76 644 20 471 20" id="aM"/><path fill="#3a414a" d="M622-916c-112 2-200 14-200 111 0 90 89 101 168 121 234 58 514 77 514 368C1104-4 751 54 434 5 267-21 161-112 121-270l247-37c24 111 113 145 252 141 114-3 226-12 226-124 0-101-103-113-192-134-225-54-490-76-490-351 0-247 201-328 458-328 245 0 413 88 457 292l-249 26c-16-98-92-133-208-131" id="aN"/><g id="s"><use transform="matrix(0.015190972222222219,0,0,0.015190972222222219,0,0)" xlink:href="#aK"/><use transform="matrix(0.015190972222222219,0,0,0.015190972222222219,18.669704861111107,0)" xlink:href="#aL"/><use transform="matrix(0.015190972222222219,0,0,0.015190972222222219,37.339409722222214,0)" xlink:href="#aq"/><use transform="matrix(0.015190972222222219,0,0,0.015190972222222219,56.00911458333332,0)" xlink:href="#as"/><use transform="matrix(0.015190972222222219,0,0,0.015190972222222219,74.67881944444443,0)" xlink:href="#aM"/><use transform="matrix(0.015190972222222219,0,0,0.015190972222222219,93.34852430555554,0)" xlink:href="#aN"/><use transform="matrix(0.015190972222222219,0,0,0.015190972222222219,112.01822916666666,0)" xlink:href="#G"/></g><path fill="#3a414a" d="M1109-360C1066-122 902 20 624 20c-347 0-514-209-514-555 0-353 168-567 518-567 270 0 425 136 473 361l-283 14c-16-106-75-183-196-182-75 0-130 31-165 93s-52 152-52 270c0 249 74 374 221 374 120 0 188-82 201-201" id="aO"/><g id="t"><use transform="matrix(0.01627604166666666,0,0,0.01627604166666666,0,0)" xlink:href="#aK"/><use transform="matrix(0.01627604166666666,0,0,0.01627604166666666,20.003255208333325,0)" xlink:href="#aL"/><use transform="matrix(0.01627604166666666,0,0,0.01627604166666666,40.00651041666665,0)" xlink:href="#aq"/><use transform="matrix(0.01627604166666666,0,0,0.01627604166666666,60.00976562499997,0)" xlink:href="#as"/><use transform="matrix(0.01627604166666666,0,0,0.01627604166666666,80.0130208333333,0)" xlink:href="#aM"/><use transform="matrix(0.01627604166666666,0,0,0.01627604166666666,100.01627604166663,0)" xlink:href="#aO"/><use transform="matrix(0.01627604166666666,0,0,0.01627604166666666,120.01953124999996,0)" xlink:href="#L"/><use transform="matrix(0.01627604166666666,0,0,0.01627604166666666,140.0227864583333,0)" xlink:href="#I"/><use transform="matrix(0.01627604166666666,0,0,0.01627604166666666,160.0260416666666,0)" xlink:href="#aq"/><use transform="matrix(0.01627604166666666,0,0,0.01627604166666666,180.02929687499991,0)" xlink:href="#aL"/></g><path fill="#333" d="M110-194c64 0 96 36 96 99 0 64-35 99-97 99-61 0-95-36-95-99 0-62 34-99 96-99zm-1 164c35 0 45-28 45-65 0-40-10-65-43-65-34 0-45 26-45 65 0 36 10 65 43 65" id="aP"/><path fill="#333" d="M190-63c-7 42-38 67-86 67-59 0-84-38-90-98-12-110 154-137 174-36l-49 2c-2-19-15-32-35-32-30 0-35 28-38 64-6 74 65 87 74 30" id="aQ"/><g id="u"><use transform="matrix(0.04938271604938272,0,0,0.04938271604938272,0,0)" xlink:href="#Z"/><use transform="matrix(0.04938271604938272,0,0,0.04938271604938272,10.814814814814815,0)" xlink:href="#ak"/><use transform="matrix(0.04938271604938272,0,0,0.04938271604938272,17.728395061728396,0)" xlink:href="#aP"/><use transform="matrix(0.04938271604938272,0,0,0.04938271604938272,28.543209876543205,0)" xlink:href="#an"/><use transform="matrix(0.04938271604938272,0,0,0.04938271604938272,39.358024691358025,0)" xlink:href="#al"/><use transform="matrix(0.04938271604938272,0,0,0.04938271604938272,50.17283950617284,0)" xlink:href="#aQ"/><use transform="matrix(0.04938271604938272,0,0,0.04938271604938272,60.04938271604939,0)" xlink:href="#ad"/></g><g id="v"><use transform="matrix(0.04938271604938272,0,0,0.04938271604938272,0,0)" xlink:href="#ap"/><use transform="matrix(0.04938271604938272,0,0,0.04938271604938272,4.938271604938272,0)" xlink:href="#am"/><use transform="matrix(0.04938271604938272,0,0,0.04938271604938272,15.753086419753087,0)" xlink:href="#aQ"/><use transform="matrix(0.04938271604938272,0,0,0.04938271604938272,25.629629629629633,0)" xlink:href="#aa"/><use transform="matrix(0.04938271604938272,0,0,0.04938271604938272,30.567901234567906,0)" xlink:href="#al"/><use transform="matrix(0.04938271604938272,0,0,0.04938271604938272,41.38271604938272,0)" xlink:href="#an"/><use transform="matrix(0.04938271604938272,0,0,0.04938271604938272,52.19753086419754,0)" xlink:href="#ad"/></g><path fill="#333" d="M24 0v-248h52V0H24" id="aR"/><path fill="#333" d="M169-182c-1-43-94-46-97-3 18 66 151 10 154 114 3 95-165 93-204 36-6-8-10-19-12-30l50-8c3 46 112 56 116 5-17-69-150-10-154-114-4-87 153-88 188-35 5 8 8 18 10 28" id="aS"/><path fill="#333" d="M199 0l-22-63H83L61 0H9l90-248h61L250 0h-51zm-33-102l-36-108c-10 38-24 72-36 108h72" id="aT"/><g id="w"><use transform="matrix(0.04938271604938272,0,0,0.04938271604938272,0,0)" xlink:href="#aR"/><use transform="matrix(0.04938271604938272,0,0,0.04938271604938272,4.938271604938272,0)" xlink:href="#aS"/><use transform="matrix(0.04938271604938272,0,0,0.04938271604938272,16.790123456790127,0)" xlink:href="#aT"/></g><path fill="#3a414a" d="M1121-976c0 225-142 341-344 379L1177 0H957L591-575H353V0H162v-1349h482c281 3 477 100 477 373zM633-726c181-1 296-73 296-247 0-149-101-223-304-223H353v470h280" id="aU"/><path fill="#3a414a" d="M528 20c-247 0-343-132-343-381v-721h180v686c-4 177 45 284 224 277 194-8 279-136 279-336v-627h181c3 360-6 732 6 1082H885c-4-54-7-126-8-185h-3C809-64 714 20 528 20" id="aV"/><g id="x"><use transform="matrix(0.013020833333333332,0,0,0.013020833333333332,0,0)" xlink:href="#aU"/><use transform="matrix(0.013020833333333332,0,0,0.013020833333333332,16.002604166666664,0)" xlink:href="#O"/><use transform="matrix(0.013020833333333332,0,0,0.013020833333333332,32.00520833333333,0)" xlink:href="#au"/><use transform="matrix(0.013020833333333332,0,0,0.013020833333333332,48.00781249999999,0)" xlink:href="#aV"/><use transform="matrix(0.013020833333333332,0,0,0.013020833333333332,64.01041666666666,0)" xlink:href="#X"/><use transform="matrix(0.013020833333333332,0,0,0.013020833333333332,80.01302083333331,0)" xlink:href="#O"/><use transform="matrix(0.013020833333333332,0,0,0.013020833333333332,96.01562499999997,0)" xlink:href="#R"/><use transform="matrix(0.013020833333333332,0,0,0.013020833333333332,112.01822916666663,0)" xlink:href="#O"/></g><g id="y"><use transform="matrix(0.04938271604938272,0,0,0.04938271604938272,0,0)" xlink:href="#ab"/><use transform="matrix(0.04938271604938272,0,0,0.04938271604938272,9.876543209876544,0)" xlink:href="#Z"/><use transform="matrix(0.04938271604938272,0,0,0.04938271604938272,20.69135802469136,0)" xlink:href="#aa"/><use transform="matrix(0.04938271604938272,0,0,0.04938271604938272,25.629629629629633,0)" xlink:href="#ap"/><use transform="matrix(0.04938271604938272,0,0,0.04938271604938272,30.567901234567906,0)" xlink:href="#aQ"/><use transform="matrix(0.04938271604938272,0,0,0.04938271604938272,40.44444444444445,0)" xlink:href="#ab"/><use transform="matrix(0.04938271604938272,0,0,0.04938271604938272,50.320987654320994,0)" xlink:href="#ao"/><use transform="matrix(0.04938271604938272,0,0,0.04938271604938272,56.19753086419754,0)" xlink:href="#ab"/></g><path fill="#3a414a" d="M27 0v-27h64v-190l-56 39v-29l58-41h29v221h61V0H27" id="aW"/><use transform="matrix(0.04938271604938272,0,0,0.04938271604938272,0,0)" xlink:href="#aW" id="z"/><path fill="#3a414a" d="M87 75C49 33 22-17 22-94c0-76 28-126 65-167h31c-38 41-64 92-64 168S80 34 118 75H87" id="aX"/><path fill="#3a414a" d="M101-251c68 0 85 55 85 127S166 4 100 4C33 4 14-52 14-124c0-73 17-127 87-127zm-1 229c47 0 54-49 54-102s-4-102-53-102c-51 0-55 48-55 102 0 53 5 102 54 102" id="aY"/><path fill="#3a414a" d="M33-261c38 41 65 92 65 168S71 34 33 75H2C39 34 66-17 66-93S39-220 2-261h31" id="aZ"/><g id="A"><use transform="matrix(0.04938271604938272,0,0,0.04938271604938272,0,0)" xlink:href="#aW"/><use transform="matrix(0.04938271604938272,0,0,0.04938271604938272,9.876543209876544,0)" xlink:href="#aX"/><use transform="matrix(0.04938271604938272,0,0,0.04938271604938272,15.753086419753087,0)" xlink:href="#aY"/><use transform="matrix(0.04938271604938272,0,0,0.04938271604938272,25.629629629629633,0)" xlink:href="#aZ"/></g><g id="B"><use transform="matrix(0.04938271604938272,0,0,0.04938271604938272,0,0)" xlink:href="#aD"/><use transform="matrix(0.04938271604938272,0,0,0.04938271604938272,14.765432098765434,0)" xlink:href="#aX"/><use transform="matrix(0.04938271604938272,0,0,0.04938271604938272,20.641975308641978,0)" xlink:href="#aY"/><use transform="matrix(0.04938271604938272,0,0,0.04938271604938272,30.518518518518523,0)" xlink:href="#aZ"/></g><g id="C"><use transform="matrix(0.04938271604938272,0,0,0.04938271604938272,0,0)" xlink:href="#aD"/><use transform="matrix(0.04938271604938272,0,0,0.04938271604938272,14.765432098765434,0)" xlink:href="#aX"/><use transform="matrix(0.04938271604938272,0,0,0.04938271604938272,20.641975308641978,0)" xlink:href="#aW"/><use transform="matrix(0.04938271604938272,0,0,0.04938271604938272,30.518518518518523,0)" xlink:href="#aZ"/></g></defs></g></svg>