<?xml version="1.0" standalone="no"?>
<!DOCTYPE svg PUBLIC "-//W3C//DTD SVG 20010904//EN"
 "http://www.w3.org/TR/2001/REC-SVG-20010904/DTD/svg10.dtd">
<svg version="1.0" xmlns="http://www.w3.org/2000/svg"
 width="1000.000000pt" height="1000.000000pt" viewBox="0 0 1000.000000 1000.000000"
 preserveAspectRatio="xMidYMid meet">
<metadata>
Created by potrace 1.14, written by Peter Selinger 2001-2017
</metadata>
<g transform="translate(0.000000,1000.000000) scale(0.100000,-0.100000)"
fill="#000000" stroke="none">
<path d="M6248 8280 c-107 -10 -182 -25 -278 -58 -94 -31 -249 -108 -256 -127
-8 -21 33 -202 78 -345 244 -765 828 -1360 1593 -1623 125 -43 368 -102 389
-94 22 9 111 198 140 298 39 137 49 233 43 412 -8 241 -48 392 -162 622 -86
172 -175 295 -315 435 -284 283 -631 449 -1006 480 -66 5 -123 9 -129 8 -5 0
-49 -4 -97 -8z"/>
<path d="M5366 7752 c-69 -109 -129 -265 -157 -407 -9 -44 -14 -136 -14 -245
0 -146 4 -192 23 -278 70 -315 206 -569 427 -801 299 -313 682 -491 1090 -507
172 -7 299 10 455 62 93 31 245 105 273 133 5 5 -52 27 -125 51 -450 142 -830
367 -1157 685 -344 334 -590 737 -741 1213 -23 72 -44 132 -46 132 -2 0 -15
-17 -28 -38z"/>
<path d="M4455 5803 c-275 -334 -817 -992 -1205 -1463 -515 -624 -714 -873
-739 -922 -30 -60 -35 -79 -39 -168 l-5 -101 -46 -40 c-66 -58 -165 -172 -221
-254 -67 -100 -106 -181 -136 -286 -24 -81 -26 -103 -22 -207 6 -132 30 -214
94 -311 64 -96 175 -200 259 -243 95 -49 318 -89 495 -89 230 0 415 47 640
161 208 106 378 231 710 520 520 453 735 580 1055 627 94 14 131 15 251 5 528
-44 1054 -343 1562 -887 56 -60 138 -155 182 -210 98 -124 137 -150 230 -150
138 1 233 98 232 237 0 76 -27 123 -165 289 -200 240 -445 472 -689 654 -581
432 -1234 619 -1778 509 -269 -55 -577 -216 -885 -465 -66 -53 -199 -165 -295
-249 -424 -368 -606 -487 -838 -546 -160 -41 -402 -30 -505 23 -34 17 -83 84
-92 123 -17 76 59 220 183 351 l82 87 103 -5 c120 -7 182 8 264 59 29 18 353
281 720 584 367 303 1003 827 1414 1165 410 338 762 628 783 645 l37 31 -133
66 c-228 113 -404 242 -579 424 -159 166 -297 369 -376 555 -21 48 -40 88 -43
88 -3 0 -231 -273 -505 -607z"/>
</g>
</svg>
